<svg xmlns="http://www.w3.org/2000/svg" viewBox="0 0 100 100">
  <rect width="100" height="100" rx="20" fill="#0F172A"/>
  <g transform="translate(15, 20)">
    <path d="M35 10 C20 10 10 25 10 40 C10 55 20 60 35 60 L35 65 L15 65 L15 70 L55 70 L55 65 L35 65 L35 60 C50 60 60 55 60 40 C60 25 50 10 35 10 Z" fill="#C8A97E"/>
    <path d="M60 20 C60 20 70 25 70 35 C70 45 60 50 60 50" stroke="#C8A97E" stroke-width="4" fill="none" stroke-linecap="round"/>
    <ellipse cx="35" cy="8" rx="15" ry="4" fill="#C8A97E" opacity="0.5"/>
    <path d="M25 0 Q27 5 25 10" stroke="#C8A97E" stroke-width="2" fill="none" opacity="0.6"/>
    <path d="M35 0 Q37 5 35 10" stroke="#C8A97E" stroke-width="2" fill="none" opacity="0.6"/>
    <path d="M45 0 Q47 5 45 10" stroke="#C8A97E" stroke-width="2" fill="none" opacity="0.6"/>
  </g>
</svg>